<svg data-v-d3f97b9e="" xmlns="http://www.w3.org/2000/svg" viewBox="0 0 834 90"><!----><linearGradient data-v-d3f97b9e="" gradientTransform="rotate(25)" id="1ee788cf-86e4-4038-90ce-e1ed48627901" x1="0%" y1="0%" x2="100%" y2="0%"><stop data-v-d3f97b9e="" offset="0%" style="stop-color: rgb(233, 0, 127); stop-opacity: 1;"></stop><stop data-v-d3f97b9e="" offset="100%" style="stop-color: rgb(254, 161, 52); stop-opacity: 1;"></stop></linearGradient><!----><g data-v-d3f97b9e="" id="af76f24a-77f8-4a22-845b-5f6bcb9393e2" fill="#ffffff" transform="matrix(4.444444444444445,0,0,4.444444444444445,107.41721726953983,5.311110575993851)"><path d="M5.46 8.82L5.46 8.82L5.46 8.82Q5.18 9.88 4.87 10.93L4.87 10.93L4.87 10.93Q4.55 11.98 4.20 13.05L4.20 13.05L2.58 13.05L2.58 13.05Q2.32 12.46 2.03 11.65L2.03 11.65L2.03 11.65Q1.74 10.84 1.42 9.88L1.42 9.88L1.42 9.88Q1.11 8.92 0.78 7.85L0.78 7.85L0.78 7.85Q0.45 6.78 0.14 5.68L0.14 5.68L2.34 5.68L2.34 5.68Q2.45 6.19 2.58 6.78L2.58 6.78L2.58 6.78Q2.72 7.38 2.86 8.01L2.86 8.01L2.86 8.01Q3.01 8.64 3.17 9.28L3.17 9.28L3.17 9.28Q3.33 9.91 3.50 10.50L3.50 10.50L3.50 10.50Q3.68 9.88 3.86 9.24L3.86 9.24L3.86 9.24Q4.03 8.60 4.19 7.97L4.19 7.97L4.19 7.97Q4.35 7.35 4.50 6.77L4.50 6.77L4.50 6.77Q4.65 6.19 4.76 5.68L4.76 5.68L6.27 5.68L6.27 5.68Q6.38 6.19 6.52 6.77L6.52 6.77L6.52 6.77Q6.66 7.35 6.82 7.97L6.82 7.97L6.82 7.97Q6.97 8.60 7.14 9.24L7.14 9.24L7.14 9.24Q7.31 9.88 7.49 10.50L7.49 10.50L7.49 10.50Q7.66 9.91 7.83 9.28L7.83 9.28L7.83 9.28Q7.99 8.64 8.14 8.01L8.14 8.01L8.14 8.01Q8.29 7.38 8.42 6.78L8.42 6.78L8.42 6.78Q8.55 6.19 8.67 5.68L8.67 5.68L10.84 5.68L10.84 5.68Q10.53 6.78 10.20 7.85L10.20 7.85L10.20 7.85Q9.87 8.92 9.55 9.88L9.55 9.88L9.55 9.88Q9.24 10.84 8.94 11.65L8.94 11.65L8.94 11.65Q8.64 12.46 8.39 13.05L8.39 13.05L6.76 13.05L6.76 13.05Q6.41 11.98 6.08 10.93L6.08 10.93L6.08 10.93Q5.74 9.88 5.46 8.82ZM14.77 11.59L14.77 11.59L14.77 11.59Q15.08 11.59 15.36 11.58L15.36 11.58L15.36 11.58Q15.64 11.56 15.81 11.54L15.81 11.54L15.81 9.95L15.81 9.95Q15.68 9.93 15.43 9.90L15.43 9.90L15.43 9.90Q15.18 9.87 14.97 9.87L14.97 9.87L14.97 9.87Q14.67 9.87 14.41 9.90L14.41 9.90L14.41 9.90Q14.15 9.94 13.96 10.04L13.96 10.04L13.96 10.04Q13.76 10.14 13.65 10.30L13.65 10.30L13.65 10.30Q13.54 10.47 13.54 10.72L13.54 10.72L13.54 10.72Q13.54 11.21 13.87 11.40L13.87 11.40L13.87 11.40Q14.20 11.59 14.77 11.59ZM14.60 5.49L14.60 5.49L14.60 5.49Q15.53 5.49 16.14 5.70L16.14 5.70L16.14 5.70Q16.76 5.91 17.13 6.30L17.13 6.30L17.13 6.30Q17.50 6.69 17.65 7.25L17.65 7.25L17.65 7.25Q17.81 7.81 17.81 8.50L17.81 8.50L17.81 12.84L17.81 12.84Q17.36 12.94 16.56 13.07L16.56 13.07L16.56 13.07Q15.76 13.20 14.63 13.20L14.63 13.20L14.63 13.20Q13.92 13.20 13.34 13.08L13.34 13.08L13.34 13.08Q12.75 12.95 12.33 12.66L12.33 12.66L12.33 12.66Q11.91 12.38 11.69 11.91L11.69 11.91L11.69 11.91Q11.47 11.45 11.47 10.78L11.47 10.78L11.47 10.78Q11.47 10.14 11.73 9.69L11.73 9.69L11.73 9.69Q11.98 9.24 12.42 8.97L12.42 8.97L12.42 8.97Q12.85 8.71 13.41 8.59L13.41 8.59L13.41 8.59Q13.97 8.47 14.57 8.47L14.57 8.47L14.57 8.47Q14.98 8.47 15.30 8.50L15.30 8.50L15.30 8.50Q15.61 8.54 15.81 8.60L15.81 8.60L15.81 8.40L15.81 8.40Q15.81 7.87 15.48 7.55L15.48 7.55L15.48 7.55Q15.16 7.22 14.36 7.22L14.36 7.22L14.36 7.22Q13.83 7.22 13.31 7.30L13.31 7.30L13.31 7.30Q12.80 7.38 12.42 7.52L12.42 7.52L12.15 5.84L12.15 5.84Q12.33 5.78 12.61 5.72L12.61 5.72L12.61 5.72Q12.88 5.66 13.20 5.61L13.20 5.61L13.20 5.61Q13.52 5.56 13.88 5.52L13.88 5.52L13.88 5.52Q14.24 5.49 14.60 5.49ZM19.63 10.04L19.63 3.85L21.71 3.51L21.71 5.68L24.22 5.68L24.22 7.42L21.71 7.42L21.71 10.01L21.71 10.01Q21.71 10.67 21.95 11.06L21.95 11.06L21.95 11.06Q22.18 11.45 22.88 11.45L22.88 11.45L22.88 11.45Q23.21 11.45 23.57 11.39L23.57 11.39L23.57 11.39Q23.93 11.33 24.22 11.21L24.22 11.21L24.51 12.84L24.51 12.84Q24.14 12.99 23.67 13.10L23.67 13.10L23.67 13.10Q23.21 13.22 22.54 13.22L22.54 13.22L22.54 13.22Q21.69 13.22 21.13 12.98L21.13 12.98L21.13 12.98Q20.57 12.75 20.23 12.34L20.23 12.34L20.23 12.34Q19.89 11.93 19.76 11.34L19.76 11.34L19.76 11.34Q19.63 10.75 19.63 10.04L19.63 10.04ZM25.56 9.37L25.56 9.37L25.56 9.37Q25.56 8.57 25.82 7.86L25.82 7.86L25.82 7.86Q26.08 7.15 26.57 6.63L26.57 6.63L26.57 6.63Q27.06 6.10 27.76 5.80L27.76 5.80L27.76 5.80Q28.46 5.49 29.36 5.49L29.36 5.49L29.36 5.49Q29.95 5.49 30.44 5.59L30.44 5.59L30.44 5.59Q30.93 5.70 31.39 5.89L31.39 5.89L30.95 7.56L30.95 7.56Q30.66 7.45 30.31 7.36L30.31 7.36L30.31 7.36Q29.96 7.28 29.53 7.28L29.53 7.28L29.53 7.28Q28.60 7.28 28.15 7.85L28.15 7.85L28.15 7.85Q27.69 8.43 27.69 9.37L27.69 9.37L27.69 9.37Q27.69 10.36 28.12 10.91L28.12 10.91L28.12 10.91Q28.55 11.45 29.61 11.45L29.61 11.45L29.61 11.45Q29.99 11.45 30.42 11.38L30.42 11.38L30.42 11.38Q30.86 11.31 31.22 11.16L31.22 11.16L31.51 12.87L31.51 12.87Q31.15 13.02 30.60 13.13L30.60 13.13L30.60 13.13Q30.06 13.24 29.40 13.24L29.40 13.24L29.40 13.24Q28.39 13.24 27.66 12.94L27.66 12.94L27.66 12.94Q26.94 12.64 26.47 12.12L26.47 12.12L26.47 12.12Q26.00 11.61 25.78 10.90L25.78 10.90L25.78 10.90Q25.56 10.19 25.56 9.37ZM35 13.05L32.91 13.05L32.91 2.52L35 2.18L35 5.71L35 5.71Q35.21 5.64 35.54 5.58L35.54 5.58L35.54 5.58Q35.87 5.52 36.18 5.52L36.18 5.52L36.18 5.52Q37.07 5.52 37.67 5.76L37.67 5.76L37.67 5.76Q38.26 6.01 38.62 6.45L38.62 6.45L38.62 6.45Q38.98 6.90 39.12 7.52L39.12 7.52L39.12 7.52Q39.27 8.13 39.27 8.89L39.27 8.89L39.27 13.05L37.18 13.05L37.18 9.14L37.18 9.14Q37.18 8.13 36.93 7.71L36.93 7.71L36.93 7.71Q36.67 7.29 35.97 7.29L35.97 7.29L35.97 7.29Q35.69 7.29 35.44 7.34L35.44 7.34L35.44 7.34Q35.20 7.39 35 7.45L35 7.45L35 13.05ZM43.97 11.59L43.97 11.59L43.97 11.59Q44.28 11.59 44.56 11.58L44.56 11.58L44.56 11.58Q44.84 11.56 45.01 11.54L45.01 11.54L45.01 9.95L45.01 9.95Q44.88 9.93 44.63 9.90L44.63 9.90L44.63 9.90Q44.38 9.87 44.17 9.87L44.17 9.87L44.17 9.87Q43.88 9.87 43.62 9.90L43.62 9.90L43.62 9.90Q43.36 9.94 43.16 10.04L43.16 10.04L43.16 10.04Q42.97 10.14 42.85 10.30L42.85 10.30L42.85 10.30Q42.74 10.47 42.74 10.72L42.74 10.72L42.74 10.72Q42.74 11.21 43.07 11.40L43.07 11.40L43.07 11.40Q43.40 11.59 43.97 11.59ZM43.81 5.49L43.81 5.49L43.81 5.49Q44.73 5.49 45.35 5.70L45.35 5.70L45.35 5.70Q45.96 5.91 46.33 6.30L46.33 6.30L46.33 6.30Q46.70 6.69 46.86 7.25L46.86 7.25L46.86 7.25Q47.01 7.81 47.01 8.50L47.01 8.50L47.01 12.84L47.01 12.84Q46.56 12.94 45.77 13.07L45.77 13.07L45.77 13.07Q44.97 13.20 43.83 13.20L43.83 13.20L43.83 13.20Q43.12 13.20 42.54 13.08L42.54 13.08L42.54 13.08Q41.96 12.95 41.54 12.66L41.54 12.66L41.54 12.66Q41.12 12.38 40.89 11.91L40.89 11.91L40.89 11.91Q40.67 11.45 40.67 10.78L40.67 10.78L40.67 10.78Q40.67 10.14 40.93 9.69L40.93 9.69L40.93 9.69Q41.19 9.24 41.62 8.97L41.62 8.97L41.62 8.97Q42.06 8.71 42.62 8.59L42.62 8.59L42.62 8.59Q43.18 8.47 43.78 8.47L43.78 8.47L43.78 8.47Q44.18 8.47 44.50 8.50L44.50 8.50L44.50 8.50Q44.81 8.54 45.01 8.60L45.01 8.60L45.01 8.40L45.01 8.40Q45.01 7.87 44.69 7.55L44.69 7.55L44.69 7.55Q44.37 7.22 43.57 7.22L43.57 7.22L43.57 7.22Q43.04 7.22 42.52 7.30L42.52 7.30L42.52 7.30Q42 7.38 41.62 7.52L41.62 7.52L41.36 5.84L41.36 5.84Q41.54 5.78 41.81 5.72L41.81 5.72L41.81 5.72Q42.08 5.66 42.41 5.61L42.41 5.61L42.41 5.61Q42.73 5.56 43.09 5.52L43.09 5.52L43.09 5.52Q43.44 5.49 43.81 5.49ZM57.05 5.81L56.70 7.53L56.70 7.53Q56.42 7.46 56.04 7.38L56.04 7.38L56.04 7.38Q55.66 7.31 55.23 7.31L55.23 7.31L55.23 7.31Q55.03 7.31 54.76 7.34L54.76 7.34L54.76 7.34Q54.49 7.38 54.35 7.42L54.35 7.42L54.35 13.05L52.26 13.05L52.26 6.08L52.26 6.08Q52.82 5.88 53.58 5.71L53.58 5.71L53.58 5.71Q54.35 5.53 55.29 5.53L55.29 5.53L55.29 5.53Q55.45 5.53 55.69 5.55L55.69 5.55L55.69 5.55Q55.93 5.57 56.17 5.61L56.17 5.61L56.17 5.61Q56.41 5.64 56.64 5.69L56.64 5.69L56.64 5.69Q56.88 5.74 57.05 5.81L57.05 5.81ZM60.98 11.59L60.98 11.59L60.98 11.59Q61.29 11.59 61.57 11.58L61.57 11.58L61.57 11.58Q61.85 11.56 62.02 11.54L62.02 11.54L62.02 9.95L62.02 9.95Q61.89 9.93 61.64 9.90L61.64 9.90L61.64 9.90Q61.39 9.87 61.18 9.87L61.18 9.87L61.18 9.87Q60.89 9.87 60.63 9.90L60.63 9.90L60.63 9.90Q60.37 9.94 60.17 10.04L60.17 10.04L60.17 10.04Q59.98 10.14 59.86 10.30L59.86 10.30L59.86 10.30Q59.75 10.47 59.75 10.72L59.75 10.72L59.75 10.72Q59.75 11.21 60.08 11.40L60.08 11.40L60.08 11.40Q60.41 11.59 60.98 11.59ZM60.82 5.49L60.82 5.49L60.82 5.49Q61.74 5.49 62.36 5.70L62.36 5.70L62.36 5.70Q62.97 5.91 63.34 6.30L63.34 6.30L63.34 6.30Q63.71 6.69 63.87 7.25L63.87 7.25L63.87 7.25Q64.02 7.81 64.02 8.50L64.02 8.50L64.02 12.84L64.02 12.84Q63.57 12.94 62.78 13.07L62.78 13.07L62.78 13.07Q61.98 13.20 60.84 13.20L60.84 13.20L60.84 13.20Q60.13 13.20 59.55 13.08L59.55 13.08L59.55 13.08Q58.97 12.95 58.55 12.66L58.55 12.66L58.55 12.66Q58.13 12.38 57.90 11.91L57.90 11.91L57.90 11.91Q57.68 11.45 57.68 10.78L57.68 10.78L57.68 10.78Q57.68 10.14 57.94 9.69L57.94 9.69L57.94 9.69Q58.20 9.24 58.63 8.97L58.63 8.97L58.63 8.97Q59.07 8.71 59.63 8.59L59.63 8.59L59.63 8.59Q60.19 8.47 60.79 8.47L60.79 8.47L60.79 8.47Q61.19 8.47 61.51 8.50L61.51 8.50L61.51 8.50Q61.82 8.54 62.02 8.60L62.02 8.60L62.02 8.40L62.02 8.40Q62.02 7.87 61.70 7.55L61.70 7.55L61.70 7.55Q61.38 7.22 60.58 7.22L60.58 7.22L60.58 7.22Q60.05 7.22 59.53 7.30L59.53 7.30L59.53 7.30Q59.01 7.38 58.63 7.52L58.63 7.52L58.37 5.84L58.37 5.84Q58.55 5.78 58.82 5.72L58.82 5.72L58.82 5.72Q59.09 5.66 59.42 5.61L59.42 5.61L59.42 5.61Q59.74 5.56 60.09 5.52L60.09 5.52L60.09 5.52Q60.45 5.49 60.82 5.49ZM65.84 10.04L65.84 3.85L67.93 3.51L67.93 5.68L70.43 5.68L70.43 7.42L67.93 7.42L67.93 10.01L67.93 10.01Q67.93 10.67 68.16 11.06L68.16 11.06L68.16 11.06Q68.39 11.45 69.09 11.45L69.09 11.45L69.09 11.45Q69.43 11.45 69.78 11.39L69.78 11.39L69.78 11.39Q70.14 11.33 70.43 11.21L70.43 11.21L70.73 12.84L70.73 12.84Q70.35 12.99 69.89 13.10L69.89 13.10L69.89 13.10Q69.43 13.22 68.75 13.22L68.75 13.22L68.75 13.22Q67.90 13.22 67.34 12.98L67.34 12.98L67.34 12.98Q66.78 12.75 66.44 12.34L66.44 12.34L66.44 12.34Q66.11 11.93 65.98 11.34L65.98 11.34L65.98 11.34Q65.84 10.75 65.84 10.04L65.84 10.04ZM74.21 5.68L74.21 13.05L72.13 13.05L72.13 5.68L74.21 5.68ZM74.41 3.56L74.41 3.56L74.41 3.56Q74.41 4.13 74.04 4.46L74.04 4.46L74.04 4.46Q73.67 4.79 73.16 4.79L73.16 4.79L73.16 4.79Q72.66 4.79 72.29 4.46L72.29 4.46L72.29 4.46Q71.92 4.13 71.92 3.56L71.92 3.56L71.92 3.56Q71.92 2.98 72.29 2.65L72.29 2.65L72.29 2.65Q72.66 2.32 73.16 2.32L73.16 2.32L73.16 2.32Q73.67 2.32 74.04 2.65L74.04 2.65L74.04 2.65Q74.41 2.98 74.41 3.56ZM76.17 13.05L76.17 5.94L76.17 5.94Q76.71 5.78 77.55 5.65L77.55 5.65L77.55 5.65Q78.39 5.52 79.31 5.52L79.31 5.52L79.31 5.52Q80.25 5.52 80.87 5.76L80.87 5.76L80.87 5.76Q81.49 6.01 81.86 6.45L81.86 6.45L81.86 6.45Q82.22 6.90 82.38 7.52L82.38 7.52L82.38 7.52Q82.53 8.13 82.53 8.89L82.53 8.89L82.53 13.05L80.44 13.05L80.44 9.14L80.44 9.14Q80.44 8.13 80.18 7.71L80.18 7.71L80.18 7.71Q79.91 7.29 79.18 7.29L79.18 7.29L79.18 7.29Q78.96 7.29 78.71 7.31L78.71 7.31L78.71 7.31Q78.46 7.34 78.26 7.36L78.26 7.36L78.26 13.05L76.17 13.05ZM86.20 9.13L86.20 9.13L86.20 9.13Q86.20 10.88 87.61 10.88L87.61 10.88L87.61 10.88Q87.93 10.88 88.21 10.79L88.21 10.79L88.21 10.79Q88.49 10.71 88.69 10.60L88.69 10.60L88.69 7.27L88.69 7.27Q88.54 7.24 88.33 7.22L88.33 7.22L88.33 7.22Q88.12 7.20 87.84 7.20L87.84 7.20L87.84 7.20Q87.01 7.20 86.60 7.74L86.60 7.74L86.60 7.74Q86.20 8.29 86.20 9.13ZM90.78 5.94L90.78 12.12L90.78 12.12Q90.78 13.93 89.86 14.80L89.86 14.80L89.86 14.80Q88.94 15.68 87.02 15.68L87.02 15.68L87.02 15.68Q86.35 15.68 85.68 15.56L85.68 15.56L85.68 15.56Q85.01 15.44 84.43 15.25L84.43 15.25L84.80 13.50L84.80 13.50Q85.29 13.69 85.83 13.80L85.83 13.80L85.83 13.80Q86.37 13.92 87.05 13.92L87.05 13.92L87.05 13.92Q87.95 13.92 88.32 13.52L88.32 13.52L88.32 13.52Q88.69 13.13 88.69 12.52L88.69 12.52L88.69 12.25L88.69 12.25Q88.35 12.40 88.00 12.48L88.00 12.48L88.00 12.48Q87.64 12.56 87.22 12.56L87.22 12.56L87.22 12.56Q85.69 12.56 84.88 11.65L84.88 11.65L84.88 11.65Q84.07 10.75 84.07 9.13L84.07 9.13L84.07 9.13Q84.07 8.32 84.32 7.65L84.32 7.65L84.32 7.65Q84.57 6.99 85.06 6.51L85.06 6.51L85.06 6.51Q85.54 6.03 86.24 5.77L86.24 5.77L86.24 5.77Q86.94 5.52 87.82 5.52L87.82 5.52L87.82 5.52Q88.20 5.52 88.60 5.55L88.60 5.55L88.60 5.55Q89.00 5.59 89.39 5.64L89.39 5.64L89.39 5.64Q89.78 5.70 90.14 5.77L90.14 5.77L90.14 5.77Q90.50 5.85 90.78 5.94L90.78 5.94ZM99.29 2.18L99.29 2.18L99.29 2.18Q99.88 2.18 100.37 2.30L100.37 2.30L100.37 2.30Q100.86 2.42 101.12 2.53L101.12 2.53L100.72 4.20L100.72 4.20Q100.44 4.07 100.11 4.01L100.11 4.01L100.11 4.01Q99.78 3.95 99.50 3.95L99.50 3.95L99.50 3.95Q99.12 3.95 98.86 4.05L98.86 4.05L98.86 4.05Q98.60 4.16 98.45 4.34L98.45 4.34L98.45 4.34Q98.31 4.52 98.25 4.77L98.25 4.77L98.25 4.77Q98.18 5.03 98.18 5.32L98.18 5.32L98.18 5.68L100.76 5.68L100.76 7.42L98.18 7.42L98.18 13.05L96.10 13.05L96.10 5.29L96.10 5.29Q96.10 3.86 96.90 3.02L96.90 3.02L96.90 3.02Q97.71 2.18 99.29 2.18ZM108.89 9.35L108.89 9.35L108.89 9.35Q108.89 10.22 108.64 10.94L108.64 10.94L108.64 10.94Q108.39 11.66 107.91 12.17L107.91 12.17L107.91 12.17Q107.44 12.68 106.77 12.96L106.77 12.96L106.77 12.96Q106.11 13.24 105.28 13.24L105.28 13.24L105.28 13.24Q104.47 13.24 103.80 12.96L103.80 12.96L103.80 12.96Q103.14 12.68 102.66 12.17L102.66 12.17L102.66 12.17Q102.19 11.66 101.92 10.94L101.92 10.94L101.92 10.94Q101.65 10.22 101.65 9.35L101.65 9.35L101.65 9.35Q101.65 8.48 101.93 7.77L101.93 7.77L101.93 7.77Q102.20 7.06 102.68 6.55L102.68 6.55L102.68 6.55Q103.17 6.05 103.83 5.77L103.83 5.77L103.83 5.77Q104.50 5.49 105.28 5.49L105.28 5.49L105.28 5.49Q106.08 5.49 106.74 5.77L106.74 5.77L106.74 5.77Q107.41 6.05 107.88 6.55L107.88 6.55L107.88 6.55Q108.36 7.06 108.63 7.77L108.63 7.77L108.63 7.77Q108.89 8.48 108.89 9.35ZM106.76 9.35L106.76 9.35L106.76 9.35Q106.76 8.39 106.38 7.83L106.38 7.83L106.38 7.83Q105.99 7.28 105.28 7.28L105.28 7.28L105.28 7.28Q104.57 7.28 104.17 7.83L104.17 7.83L104.17 7.83Q103.78 8.39 103.78 9.35L103.78 9.35L103.78 9.35Q103.78 10.32 104.17 10.88L104.17 10.88L104.17 10.88Q104.57 11.45 105.28 11.45L105.28 11.45L105.28 11.45Q105.99 11.45 106.38 10.88L106.38 10.88L106.38 10.88Q106.76 10.32 106.76 9.35ZM115.29 5.81L114.94 7.53L114.94 7.53Q114.66 7.46 114.28 7.38L114.28 7.38L114.28 7.38Q113.90 7.31 113.47 7.31L113.47 7.31L113.47 7.31Q113.27 7.31 113.00 7.34L113.00 7.34L113.00 7.34Q112.73 7.38 112.59 7.42L112.59 7.42L112.59 13.05L110.50 13.05L110.50 6.08L110.50 6.08Q111.06 5.88 111.83 5.71L111.83 5.71L111.83 5.71Q112.59 5.53 113.53 5.53L113.53 5.53L113.53 5.53Q113.69 5.53 113.93 5.55L113.93 5.55L113.93 5.55Q114.17 5.57 114.41 5.61L114.41 5.61L114.41 5.61Q114.65 5.64 114.88 5.69L114.88 5.69L114.88 5.69Q115.12 5.74 115.29 5.81L115.29 5.81ZM119.77 13.05L119.77 5.94L119.77 5.94Q120.30 5.78 121.14 5.65L121.14 5.65L121.14 5.65Q121.98 5.52 122.91 5.52L122.91 5.52L122.91 5.52Q123.84 5.52 124.47 5.76L124.47 5.76L124.47 5.76Q125.09 6.01 125.45 6.45L125.45 6.45L125.45 6.45Q125.82 6.90 125.97 7.52L125.97 7.52L125.97 7.52Q126.13 8.13 126.13 8.89L126.13 8.89L126.13 13.05L124.04 13.05L124.04 9.14L124.04 9.14Q124.04 8.13 123.77 7.71L123.77 7.71L123.77 7.71Q123.51 7.29 122.78 7.29L122.78 7.29L122.78 7.29Q122.56 7.29 122.30 7.31L122.30 7.31L122.30 7.31Q122.05 7.34 121.86 7.36L121.86 7.36L121.86 13.05L119.77 13.05ZM127.67 9.42L127.67 9.42L127.67 9.42Q127.67 8.44 127.97 7.71L127.97 7.71L127.97 7.71Q128.27 6.97 128.76 6.48L128.76 6.48L128.76 6.48Q129.25 5.99 129.88 5.74L129.88 5.74L129.88 5.74Q130.52 5.49 131.19 5.49L131.19 5.49L131.19 5.49Q132.76 5.49 133.67 6.45L133.67 6.45L133.67 6.45Q134.58 7.41 134.58 9.27L134.58 9.27L134.58 9.27Q134.58 9.45 134.57 9.67L134.57 9.67L134.57 9.67Q134.55 9.88 134.54 10.05L134.54 10.05L129.81 10.05L129.81 10.05Q129.88 10.70 130.41 11.07L130.41 11.07L130.41 11.07Q130.94 11.45 131.84 11.45L131.84 11.45L131.84 11.45Q132.41 11.45 132.97 11.35L132.97 11.35L132.97 11.35Q133.52 11.24 133.87 11.09L133.87 11.09L134.15 12.78L134.15 12.78Q133.98 12.87 133.70 12.95L133.70 12.95L133.70 12.95Q133.42 13.03 133.08 13.10L133.08 13.10L133.08 13.10Q132.73 13.16 132.34 13.20L132.34 13.20L132.34 13.20Q131.95 13.24 131.56 13.24L131.56 13.24L131.56 13.24Q130.56 13.24 129.83 12.95L129.83 12.95L129.83 12.95Q129.09 12.66 128.61 12.14L128.61 12.14L128.61 12.14Q128.13 11.63 127.90 10.93L127.90 10.93L127.90 10.93Q127.67 10.23 127.67 9.42ZM129.81 8.62L132.57 8.62L132.57 8.62Q132.55 8.36 132.47 8.11L132.47 8.11L132.47 8.11Q132.40 7.85 132.24 7.66L132.24 7.66L132.24 7.66Q132.08 7.46 131.83 7.34L131.83 7.34L131.83 7.34Q131.59 7.21 131.22 7.21L131.22 7.21L131.22 7.21Q130.87 7.21 130.62 7.33L130.62 7.33L130.62 7.33Q130.37 7.45 130.20 7.64L130.20 7.64L130.20 7.64Q130.03 7.84 129.94 8.10L129.94 8.10L129.94 8.10Q129.85 8.36 129.81 8.62L129.81 8.62ZM136.12 10.04L136.12 3.85L138.21 3.51L138.21 5.68L140.71 5.68L140.71 7.42L138.21 7.42L138.21 10.01L138.21 10.01Q138.21 10.67 138.44 11.06L138.44 11.06L138.44 11.06Q138.67 11.45 139.37 11.45L139.37 11.45L139.37 11.45Q139.71 11.45 140.06 11.39L140.06 11.39L140.06 11.39Q140.42 11.33 140.71 11.21L140.71 11.21L141.01 12.84L141.01 12.84Q140.63 12.99 140.17 13.10L140.17 13.10L140.17 13.10Q139.71 13.22 139.03 13.22L139.03 13.22L139.03 13.22Q138.18 13.22 137.62 12.98L137.62 12.98L137.62 12.98Q137.06 12.75 136.72 12.34L136.72 12.34L136.72 12.34Q136.39 11.93 136.25 11.34L136.25 11.34L136.25 11.34Q136.12 10.75 136.12 10.04L136.12 10.04ZM145.60 2.18L145.60 2.18L145.60 2.18Q146.19 2.18 146.68 2.30L146.68 2.30L146.68 2.30Q147.17 2.42 147.43 2.53L147.43 2.53L147.03 4.20L147.03 4.20Q146.75 4.07 146.42 4.01L146.42 4.01L146.42 4.01Q146.09 3.95 145.81 3.95L145.81 3.95L145.81 3.95Q145.43 3.95 145.17 4.05L145.17 4.05L145.17 4.05Q144.91 4.16 144.77 4.34L144.77 4.34L144.77 4.34Q144.62 4.52 144.56 4.77L144.56 4.77L144.56 4.77Q144.49 5.03 144.49 5.32L144.49 5.32L144.49 5.68L147.07 5.68L147.07 7.42L144.49 7.42L144.49 13.05L142.41 13.05L142.41 5.29L142.41 5.29Q142.41 3.86 143.21 3.02L143.21 3.02L143.21 3.02Q144.02 2.18 145.60 2.18ZM151.55 11.47L151.26 13.19L151.26 13.19Q150.35 13.17 149.78 12.99L149.78 12.99L149.78 12.99Q149.21 12.81 148.88 12.48L148.88 12.48L148.88 12.48Q148.55 12.15 148.43 11.68L148.43 11.68L148.43 11.68Q148.32 11.21 148.32 10.63L148.32 10.63L148.32 2.52L150.40 2.18L150.40 10.21L150.40 10.21Q150.40 10.49 150.44 10.71L150.44 10.71L150.44 10.71Q150.49 10.93 150.60 11.09L150.60 11.09L150.60 11.09Q150.72 11.24 150.95 11.34L150.95 11.34L150.95 11.34Q151.17 11.44 151.55 11.47L151.55 11.47ZM154.83 5.68L154.83 13.05L152.74 13.05L152.74 5.68L154.83 5.68ZM155.02 3.56L155.02 3.56L155.02 3.56Q155.02 4.13 154.65 4.46L154.65 4.46L154.65 4.46Q154.28 4.79 153.78 4.79L153.78 4.79L153.78 4.79Q153.27 4.79 152.90 4.46L152.90 4.46L152.90 4.46Q152.53 4.13 152.53 3.56L152.53 3.56L152.53 3.56Q152.53 2.98 152.90 2.65L152.90 2.65L152.90 2.65Q153.27 2.32 153.78 2.32L153.78 2.32L153.78 2.32Q154.28 2.32 154.65 2.65L154.65 2.65L154.65 2.65Q155.02 2.98 155.02 3.56ZM158.26 5.68L159.71 7.92L161.17 5.68L163.32 5.68L160.80 9.23L160.80 9.23Q161.64 10.28 162.33 11.27L162.33 11.27L162.33 11.27Q163.02 12.26 163.42 13.05L163.42 13.05L161.18 13.05L161.18 13.05Q161.07 12.84 160.90 12.52L160.90 12.52L160.90 12.52Q160.73 12.21 160.52 11.87L160.52 11.87L160.52 11.87Q160.31 11.52 160.08 11.18L160.08 11.18L160.08 11.18Q159.85 10.84 159.63 10.56L159.63 10.56L159.63 10.56Q159.42 10.82 159.20 11.14L159.20 11.14L159.20 11.14Q158.98 11.47 158.79 11.79L158.79 11.79L158.79 11.79Q158.59 12.12 158.40 12.45L158.40 12.45L158.40 12.45Q158.21 12.77 158.07 13.05L158.07 13.05L155.95 13.05L155.95 13.05Q156.11 12.70 156.41 12.22L156.41 12.22L156.41 12.22Q156.70 11.75 157.04 11.23L157.04 11.23L157.04 11.23Q157.39 10.72 157.77 10.21L157.77 10.21L157.77 10.21Q158.14 9.70 158.51 9.25L158.51 9.25L158.51 9.25Q157.88 8.37 157.25 7.47L157.25 7.47L157.25 7.47Q156.62 6.57 156.00 5.68L156.00 5.68L158.26 5.68Z"></path></g><!----><g data-v-d3f97b9e="" id="aba3dd95-fa2a-446b-998e-365b6c6a850a" transform="matrix(1.3064385106808298,0,0,1.3064385106808298,-21.001050990507252,-19.828003356446303)" stroke="none" fill="#ffffff"><path d="M38.7 50.3c-.3-.7-.1-1.8.3-2.5l5.3-6.9c.5-.6 1.5-1.1 2.3-.9l8.7 1.2c.8.1 1.7.8 2 1.5l3.3 8.1c.3.7.1 1.8-.3 2.5L55 60.2c-.5.6-1.5 1.1-2.3.9L44 59.9c-.8-.1-1.7-.8-2-1.5l-3.3-8.1zM58.1 63.9c-.3-.7-.1-1.8.3-2.5l5.4-6.9c.5-.6 1.5-1.1 2.3-.9l8.7 1.2c.8.1 1.7.8 2 1.5l3.3 8.1c.3.7.1 1.8-.3 2.5l-5.3 6.9c-.5.6-1.5 1.1-2.3.9l-8.7-1.2c-.8-.1-1.7-.8-2-1.5l-3.4-8.1zM19.6 34.6c-.3-.7-.2-1.8.3-2.5l5.3-6.9c.5-.6 1.5-1.1 2.3-.9l8.7 1.2c.8.1 1.7.8 2 1.5l3.3 8.1c.3.7.1 1.8-.3 2.5L36 44.3c-.5.6-1.5 1.1-2.3 1L25 44.2c-.8-.1-1.7-.8-2-1.5l-3.4-8.1zM42.1 26.1c-.3-.7-.1-1.8.3-2.5l5.4-6.9c.5-.6 1.5-1.1 2.3-.9l8.7 1.2c.8.1 1.7.8 2 1.5l3.3 8.1c.3.7.1 1.8-.3 2.5L58.4 36c-.5.6-1.5 1.1-2.3.9l-8.7-1.2c-.8-.1-1.7-.8-2-1.5l-3.3-8.1zM61.6 40c-.3-.7-.1-1.8.3-2.5l5.3-6.9c.5-.6 1.5-1.1 2.3-.9l8.7 1.2c.8.1 1.7.8 2 1.5l3.3 8.1c.3.7.1 1.8-.3 2.5l-5.4 6.9c-.5.6-1.5 1.1-2.3.9l-8.7-1.2c-.8-.1-1.7-.8-2-1.5L61.6 40zM16.4 58.5c-.3-.7-.1-1.8.3-2.5l5.3-6.9c.5-.6 1.5-1.1 2.3-.9l8.7 1.2c.8.1 1.7.8 2 1.5l3.3 8.1c.3.7.1 1.8-.3 2.5l-5.3 6.9c-.5.6-1.5 1.1-2.3.9l-8.7-1.2c-.8-.1-1.7-.8-2-1.5l-3.3-8.1zM35.3 73.8c-.3-.7-.1-1.8.3-2.5l5.4-6.9c.5-.6 1.5-1.1 2.3-.9l8.7 1.2c.8.1 1.7.8 2 1.5l3.3 8.1c.3.7.1 1.8-.3 2.5l-5.4 6.9c-.5.6-1.5 1.1-2.3.9l-8.7-1.2c-.8-.1-1.7-.8-2-1.5l-3.3-8.1z"></path></g><!----></svg>